<svg width="112" height="112" viewBox="0 0 112 112" fill="none" xmlns="http://www.w3.org/2000/svg">
<path d="M112 56C112 41.1479 106.1 26.9041 95.598 16.402C85.0959 5.89998 70.8521 0 56 0C41.1479 0 26.9041 5.89998 16.402 16.402C5.89998 26.9041 0 41.1479 0 56C0 70.8521 5.89998 85.0959 16.402 95.598C26.9041 106.1 41.1479 112 56 112C70.8521 112 85.0959 106.1 95.598 95.598C106.1 85.0959 112 70.8521 112 56ZM59.5 80.5C59.5 81.4283 59.1313 82.3185 58.4749 82.9749C57.8185 83.6313 56.9283 84 56 84C55.0717 84 54.1815 83.6313 53.5251 82.9749C52.8687 82.3185 52.5 81.4283 52.5 80.5V39.949L37.478 54.978C36.8208 55.6352 35.9294 56.0044 35 56.0044C34.0706 56.0044 33.1792 55.6352 32.522 54.978C31.8648 54.3208 31.4956 53.4294 31.4956 52.5C31.4956 51.5706 31.8648 50.6792 32.522 50.022L53.522 29.022C53.8471 28.6961 54.2333 28.4375 54.6586 28.261C55.0838 28.0846 55.5396 27.9937 56 27.9937C56.4604 27.9937 56.9162 28.0846 57.3414 28.261C57.7666 28.4375 58.1529 28.6961 58.478 29.022L79.478 50.022C80.1352 50.6792 80.5044 51.5706 80.5044 52.5C80.5044 53.4294 80.1352 54.3208 79.478 54.978C78.8208 55.6352 77.9294 56.0044 77 56.0044C76.0706 56.0044 75.1792 55.6352 74.522 54.978L59.5 39.949V80.5Z" fill="#E5E5E5"/>
</svg>
